#tb 0: 1/25
#media_type 0: video
#codec_id 0: rawvideo
#dimensions 0: 176x144
#sar 0: 0/1
0,          0,          0,        1,    38016, 0xb3883478
0,          1,          1,        1,    38016, 0x99e1fe60
0,          2,          2,        1,    38016, 0x65eace24
0,          3,          3,        1,    38016, 0xb2b0a513
0,          4,          4,        1,    38016, 0x8af47c64
0,          5,          5,        1,    38016, 0xa56670c6
0,          6,          6,        1,    38016, 0x11d45ac9
0,          7,          7,        1,    38016, 0xcd4e4f18
0,          8,          8,        1,    38016, 0x399934b2
0,          9,          9,        1,    38016, 0xedd23f7b
0,         10,         10,        1,    38016, 0x38c350b9
0,         11,         11,        1,    38016, 0xdd937244
0,         12,         12,        1,    38016, 0x39c67be6
0,         13,         13,        1,    38016, 0xabb7a34d
0,         14,         14,        1,    38016, 0x535d971f
0,         15,         15,        1,    38016, 0xd41c9cf7
0,         16,         16,        1,    38016, 0xfddda183
0,         17,         17,        1,    38016, 0x7b659dc5
0,         18,         18,        1,    38016, 0x06978b0c
0,         19,         19,        1,    38016, 0x62596b00
0,         20,         20,        1,    38016, 0x5e504719
0,         21,         21,        1,    38016, 0x55252349
0,         22,         22,        1,    38016, 0xdbdd0d9e
0,         23,         23,        1,    38016, 0x550a0918
0,         24,         24,        1,    38016, 0xb890feeb
0,         25,         25,        1,    38016, 0x8aa01221
0,         26,         26,        1,    38016, 0xfcc01085
0,         27,         27,        1,    38016, 0x78f11d7d
0,         28,         28,        1,    38016, 0xfcd33487
0,         29,         29,        1,    38016, 0x9b444cfc
0,         30,         30,        1,    38016, 0xed9563d3
0,         31,         31,        1,    38016, 0x07e17628
0,         32,         32,        1,    38016, 0x9bb792fd
0,         33,         33,        1,    38016, 0xa6aea73d
0,         34,         34,        1,    38016, 0x4b90b778
0,         35,         35,        1,    38016, 0x6df2b998
0,         36,         36,        1,    38016, 0x799eb2db
0,         37,         37,        1,    38016, 0x48dab272
0,         38,         38,        1,    38016, 0x9877b4eb
0,         39,         39,        1,    38016, 0x901ab58e
0,         40,         40,        1,    38016, 0x32c2beb1
0,         41,         41,        1,    38016, 0xe542b56e
0,         42,         42,        1,    38016, 0x1edf9ff4
0,         43,         43,        1,    38016, 0xf103942c
0,         44,         44,        1,    38016, 0x097a8dc7
0,         45,         45,        1,    38016, 0xe3728780
0,         46,         46,        1,    38016, 0xce9a9026
0,         47,         47,        1,    38016, 0x78ba841b
0,         48,         48,        1,    38016, 0x5fc687ab
0,         49,         49,        1,    38016, 0x03a49472
